<?xml version="1.0" encoding="UTF-8" standalone="no"?>
<!-- Created with Inkscape (http://www.inkscape.org/) -->

<svg
   xmlns:dc="http://purl.org/dc/elements/1.1/"
   xmlns:cc="http://creativecommons.org/ns#"
   xmlns:rdf="http://www.w3.org/1999/02/22-rdf-syntax-ns#"
   xmlns:svg="http://www.w3.org/2000/svg"
   xmlns="http://www.w3.org/2000/svg"
   xmlns:sodipodi="http://sodipodi.sourceforge.net/DTD/sodipodi-0.dtd"
   xmlns:inkscape="http://www.inkscape.org/namespaces/inkscape"
   width="640"
   height="640"
   viewBox="0 0 640.00001 640.00001"
   id="svg4167"
   version="1.1"
   inkscape:version="0.91 r13725"
   sodipodi:docname="favicon.svg"
   inkscape:export-filename="/Users/seanne/projects/production/seanmcp/img/favicon.png"
   inkscape:export-xdpi="90"
   inkscape:export-ydpi="90">
  <defs
     id="defs4169" />
  <sodipodi:namedview
     id="base"
     pagecolor="#ffffff"
     bordercolor="#666666"
     borderopacity="1.0"
     inkscape:pageopacity="0.0"
     inkscape:pageshadow="2"
     inkscape:zoom="0.88804348"
     inkscape:cx="440"
     inkscape:cy="242.59316"
     inkscape:document-units="px"
     inkscape:current-layer="layer1"
     showgrid="true"
     units="px"
     showguides="false"
     inkscape:window-width="1280"
     inkscape:window-height="751"
     inkscape:window-x="0"
     inkscape:window-y="1"
     inkscape:window-maximized="1">
    <inkscape:grid
       type="xygrid"
       id="grid4715" />
  </sodipodi:namedview>
  <metadata
     id="metadata4172">
    <rdf:RDF>
      <cc:Work
         rdf:about="">
        <dc:format>image/svg+xml</dc:format>
        <dc:type
           rdf:resource="http://purl.org/dc/dcmitype/StillImage" />
        <dc:title></dc:title>
      </cc:Work>
    </rdf:RDF>
  </metadata>
  <g
     inkscape:label="Layer 1"
     inkscape:groupmode="layer"
     id="layer1"
     transform="translate(0,-412.36216)">
    <path
       style="fill:#212121;fill-opacity:1;stroke:none;stroke-width:1;stroke-miterlimit:4;stroke-dasharray:none;stroke-opacity:1"
       d="m 0,553.16216 0,358.4 640,0 0,-358.4 -640,0 z m 390.42501,76.8 c 26.25178,0 41.95553,13.66436 47.10999,40.995 l 1.075,0 c 8.15124,-13.18582 17.74185,-23.31259 28.76999,-30.385 11.14804,-7.07241 23.01853,-10.61 35.60502,-10.61 16.30247,0 28.70912,5.09594 37.21999,15.28499 8.63074,10.18906 12.945,24.39457 12.945,42.61502 0,9.11019 -1.37797,19.89839 -4.13501,32.365 l -23.91498,114.53499 -54.12501,0 24.815,-117.41499 c 1.91793,-8.15124 2.87501,-15.28159 2.87501,-21.39502 0,-14.74414 -5.87264,-22.11499 -17.62002,-22.11499 -11.02815,0 -21.03465,6.70942 -30.02498,20.13501 -8.87048,13.42556 -15.94568,32.48653 -21.22002,57.17998 l -17.25998,83.61001 -54.12002,0 24.63002,-117.41499 c 1.91793,-8.15124 2.88,-15.28159 2.88,-21.39502 0,-14.74414 -5.87763,-22.11499 -17.62501,-22.11499 -11.02815,0 -21.03465,6.82969 -30.02501,20.495 -8.99034,13.66533 -16.06554,32.72627 -21.22,57.18 l -17.61999,83.25 -54.12,0 42.615,-201.025 41.35501,0 -3.775,37.22 1.07499,0 c 17.50119,-27.33064 38.7819,-40.995 63.83501,-40.995 z M 172.14,634.09715 c 20.49798,0 40.27548,4.43453 59.335,13.30501 l -9.71,24.63501 -10.07,-4.495 c -12.10699,-5.15446 -25.29032,-7.73 -39.555,-7.73 -11.14802,0 -19.90183,2.63565 -26.255,7.90999 -6.35318,5.15446 -9.53,11.86888 -9.53,20.14001 0,6.71278 2.09951,12.46515 6.295,17.26 4.31536,4.79483 13.12429,10.96809 26.43,18.51999 12.82622,7.19227 21.99592,13.36553 27.51,18.51999 5.63395,5.15448 9.83296,10.72645 12.59,16.72002 2.75704,5.87369 4.135,12.52798 4.135,19.95999 0,18.6999 -6.65429,33.32634 -19.96,43.875 -13.18584,10.4288 -31.82588,15.64001 -55.92,15.64001 -20.25824,0 -38.537513,-4.13389 -54.84,-12.40502 l 0,-28.40998 c 8.390987,5.03457 17.44043,8.92795 27.15,11.68499 9.70957,2.75704 18.69889,4.14 26.97,4.14 15.10378,0 26.49324,-2.99645 34.165,-8.99 7.67176,-5.99357 11.505,-13.67004 11.505,-23.02 0,-6.83267 -2.09451,-12.58502 -6.29,-17.26001 -4.19549,-4.67497 -13.24494,-11.08874 -27.15,-19.23999 -15.58326,-8.75059 -26.61195,-17.31901 -33.085,-25.71 -6.47305,-8.39099 -9.71,-18.34235 -9.71,-29.85001 0,-16.54221 6.053,-29.84581 18.16,-39.91498 12.10699,-10.18906 28.05125,-15.28502 47.83,-15.28502 z"
       id="rect4731"
       inkscape:connector-curvature="0" />
  </g>
</svg>
