<?xml version="1.0" encoding="UTF-8" standalone="no"?>
<!-- Created with Inkscape (http://www.inkscape.org/) -->

<svg
   xmlns:dc="http://purl.org/dc/elements/1.1/"
   xmlns:cc="http://creativecommons.org/ns#"
   xmlns:rdf="http://www.w3.org/1999/02/22-rdf-syntax-ns#"
   xmlns:svg="http://www.w3.org/2000/svg"
   xmlns="http://www.w3.org/2000/svg"
   xmlns:sodipodi="http://sodipodi.sourceforge.net/DTD/sodipodi-0.dtd"
   xmlns:inkscape="http://www.inkscape.org/namespaces/inkscape"
   width="600"
   height="600"
   viewBox="0 0 600.00001 600.00001"
   id="svg4167"
   version="1.1"
   inkscape:version="0.91 r13725"
   sodipodi:docname="logo_sean_mcp.svg">
  <defs
     id="defs4169" />
  <sodipodi:namedview
     id="base"
     pagecolor="#ffffff"
     bordercolor="#666666"
     borderopacity="1.0"
     inkscape:pageopacity="0.0"
     inkscape:pageshadow="2"
     inkscape:zoom="1.4"
     inkscape:cx="207.98753"
     inkscape:cy="482.25271"
     inkscape:document-units="px"
     inkscape:current-layer="layer1"
     showgrid="true"
     units="px"
     showguides="false"
     inkscape:window-width="1280"
     inkscape:window-height="751"
     inkscape:window-x="0"
     inkscape:window-y="1"
     inkscape:window-maximized="1">
    <inkscape:grid
       type="xygrid"
       id="grid4715" />
  </sodipodi:namedview>
  <metadata
     id="metadata4172">
    <rdf:RDF>
      <cc:Work
         rdf:about="">
        <dc:format>image/svg+xml</dc:format>
        <dc:type
           rdf:resource="http://purl.org/dc/dcmitype/StillImage" />
        <dc:title></dc:title>
      </cc:Work>
    </rdf:RDF>
  </metadata>
  <g
     inkscape:label="Layer 1"
     inkscape:groupmode="layer"
     id="layer1"
     transform="translate(0,-452.36216)">
    <rect
       style="fill:#800000;fill-opacity:0.98431373;stroke:none;stroke-width:1;stroke-miterlimit:4;stroke-dasharray:none;stroke-opacity:1"
       id="rect4729"
       width="640"
       height="139.99998"
       x="-20"
       y="682.36218" />
    <text
       xml:space="preserve"
       style="font-style:normal;font-weight:normal;font-size:143.84547424px;line-height:125%;font-family:sans-serif;letter-spacing:0px;word-spacing:0px;fill:#ffffff;fill-opacity:1;stroke:none;stroke-width:1px;stroke-linecap:butt;stroke-linejoin:miter;stroke-opacity:1;"
       x="11.701504"
       y="792.36218"
       id="text4717"
       sodipodi:linespacing="125%"><tspan
         sodipodi:role="line"
         id="tspan4719"
         x="11.701504"
         y="792.36218"
         style="font-style:italic;font-variant:normal;font-weight:bold;font-stretch:normal;font-family:'Open Sans';-inkscape-font-specification:'Open Sans Bold Italic';fill:#ffffff;"><tspan
   style="font-style:italic;font-variant:normal;font-weight:normal;font-stretch:normal;font-family:'Open Sans';-inkscape-font-specification:'Open Sans Italic';fill:#ffffff;"
   id="tspan4721">sean</tspan>mcp</tspan></text>
    <rect
       y="522.36218"
       x="-20"
       height="139.99998"
       width="250"
       id="rect4731"
       style="fill:#800000;fill-opacity:0.98431373;stroke:none;stroke-width:1;stroke-miterlimit:4;stroke-dasharray:none;stroke-opacity:1" />
    <text
       sodipodi:linespacing="125%"
       id="text4733"
       y="632.36218"
       x="11.701504"
       style="font-style:normal;font-weight:normal;font-size:143.84547424px;line-height:125%;font-family:sans-serif;letter-spacing:0px;word-spacing:0px;fill:#ffffff;fill-opacity:1;stroke:none;stroke-width:1px;stroke-linecap:butt;stroke-linejoin:miter;stroke-opacity:1"
       xml:space="preserve"><tspan
         style="font-style:italic;font-variant:normal;font-weight:bold;font-stretch:normal;font-family:'Open Sans';-inkscape-font-specification:'Open Sans Bold Italic';fill:#ffffff"
         y="632.36218"
         x="11.701504"
         id="tspan4735"
         sodipodi:role="line"><tspan
   id="tspan4737"
   style="font-style:italic;font-variant:normal;font-weight:normal;font-stretch:normal;font-family:'Open Sans';-inkscape-font-specification:'Open Sans Italic';fill:#ffffff">s</tspan>m</tspan></text>
    <path
       style="fill:#00ff00;fill-opacity:0.98431373;stroke:none;stroke-width:1;stroke-miterlimit:4;stroke-dasharray:none;stroke-opacity:1"
       d="M 260 70 L 260 210 L 784.33008 210 L 807.38281 101.47461 L 823.53711 101.47461 L 822.3418 113.41602 L 822.97461 113.41602 C 829.43642 104.4725 836.85861 100 845.24023 100 C 852.07664 100 857.46126 102.52887 861.39453 107.58594 C 865.37463 112.59618 867.36523 119.61908 867.36523 128.65625 C 867.36523 137.59977 865.74848 146.21593 862.51758 154.50391 C 859.3335 162.74505 854.95495 169.30015 849.38281 174.16992 C 843.81067 178.99287 837.67835 181.4043 830.98242 181.4043 C 827.09597 181.4043 823.74698 180.53915 820.9375 178.80664 C 818.12802 177.07413 815.52868 174.12443 813.14062 169.95703 L 812.58008 169.95703 C 812.01818 177.40216 811.01016 184.30762 809.55859 190.67578 L 805.4668 210 L 900 210 L 900 70 L 260 70 z M 647.94336 100 C 658.19797 100 664.33224 105.33764 666.3457 116.01367 L 666.76758 116.01367 C 669.95166 110.86296 673.69799 106.90719 678.00586 104.14453 C 682.36056 101.38187 686.99552 100 691.91211 100 C 698.28027 100 703.12662 101.9906 706.45117 105.9707 C 709.82255 109.9508 711.50781 115.49983 711.50781 122.61719 C 711.50781 126.17586 710.96955 130.39 709.89258 135.25977 L 700.55078 180 L 679.41016 180 L 689.10352 134.13477 C 689.85271 130.95069 690.22656 128.1654 690.22656 125.77734 C 690.22656 120.01791 687.93257 117.13867 683.34375 117.13867 C 679.03588 117.13867 675.12513 119.75954 671.61328 125.00391 C 668.14825 130.24827 665.38646 137.69396 663.32617 147.33984 L 656.58203 180 L 635.44141 180 L 645.06445 134.13477 C 645.81365 130.95069 646.1875 128.1654 646.1875 125.77734 C 646.1875 120.01791 643.89351 117.13867 639.30469 117.13867 C 634.99682 117.13867 631.08607 119.80652 627.57422 125.14453 C 624.06237 130.48255 621.30057 137.92823 619.28711 147.48047 L 612.4043 180 L 591.26172 180 L 607.9082 101.47461 L 624.0625 101.47461 L 622.58789 116.01367 L 623.00977 116.01367 C 629.84617 105.33764 638.157 100 647.94336 100 z M 766.64453 100 C 775.16663 100 782.84523 101.68526 789.68164 105.05664 L 783.2207 121.14062 C 780.69217 120.06366 778.21027 119.12805 775.77539 118.33203 C 773.34051 117.53601 770.57676 117.13867 767.48633 117.13867 C 763.50623 117.13867 759.90083 118.63603 756.66992 121.63281 C 753.48584 124.62959 750.98241 128.74977 749.15625 133.99414 C 747.37691 139.19168 746.48633 144.78769 746.48633 150.78125 C 746.48633 155.27642 747.53937 158.67043 749.64648 160.96484 C 751.80042 163.21243 754.77361 164.33789 758.56641 164.33789 C 762.12508 164.33789 765.4271 163.79962 768.4707 162.72266 C 771.51431 161.59886 774.65191 160.21699 777.88281 158.57812 L 777.88281 175.85547 C 770.76546 179.55462 762.89895 181.4043 754.2832 181.4043 C 744.87144 181.4043 737.63715 178.89891 732.58008 173.88867 C 727.56984 168.8316 725.06445 161.71475 725.06445 152.53711 C 725.06445 142.61027 726.79669 133.59677 730.26172 125.49609 C 733.77357 117.3486 738.69038 111.0734 745.01172 106.67188 C 751.33305 102.22353 758.54386 100 766.64453 100 z M 327.24219 101.61523 C 335.24921 101.61523 342.97479 103.34747 350.41992 106.8125 L 346.62695 116.43555 L 342.69336 114.67969 C 337.96406 112.66623 332.81433 111.66016 327.24219 111.66016 C 322.88749 111.66016 319.46804 112.68971 316.98633 114.75 C 314.50462 116.76346 313.26367 119.38628 313.26367 122.61719 C 313.26367 125.23937 314.08379 127.48639 315.72266 129.35938 C 317.40835 131.23236 320.84933 133.64379 326.04688 136.59375 C 331.05712 139.40323 334.63903 141.81466 336.79297 143.82812 C 338.99373 145.84159 340.63397 148.01814 341.71094 150.35938 C 342.78791 152.65379 343.32617 155.25312 343.32617 158.15625 C 343.32617 165.4609 340.72684 171.17435 335.5293 175.29492 C 330.37858 179.36867 323.09731 181.4043 313.68555 181.4043 C 305.77217 181.4043 298.63183 179.7895 292.26367 176.55859 L 292.26367 165.46094 C 295.5414 167.42757 299.07634 168.94842 302.86914 170.02539 C 306.66194 171.10236 310.17339 171.64258 313.4043 171.64258 C 319.30421 171.64258 323.75322 170.47209 326.75 168.13086 C 329.74678 165.78962 331.24414 162.791 331.24414 159.13867 C 331.24414 156.46966 330.42597 154.22265 328.78711 152.39648 C 327.14824 150.57032 323.61331 148.06494 318.18164 144.88086 C 312.09443 141.46266 307.78635 138.11562 305.25781 134.83789 C 302.72928 131.56016 301.46484 127.67291 301.46484 123.17773 C 301.46484 116.71593 303.8293 111.51921 308.55859 107.58594 C 313.28789 103.60584 319.51611 101.61523 327.24219 101.61523 z M 398.25195 101.61523 C 405.41613 101.61523 410.80075 103.18501 414.40625 106.32227 C 418.01175 109.4127 419.81445 113.74231 419.81445 119.31445 C 419.81445 127.7429 415.9272 134.36846 408.1543 139.19141 C 400.3814 143.96753 389.25985 146.35742 374.79102 146.35742 L 372.47461 146.35742 L 372.19336 151.97461 C 372.19336 158.10864 373.62221 162.90997 376.47852 166.375 C 379.38165 169.7932 383.85219 171.50195 389.89258 171.50195 C 392.84253 171.50195 395.86269 171.07917 398.95312 170.23633 C 402.09038 169.39348 405.97764 167.84915 410.61328 165.60156 L 410.61328 175.85547 C 406.21176 177.91576 402.3245 179.34461 398.95312 180.14062 C 395.58175 180.98347 391.85891 181.4043 387.78516 181.4043 C 379.16941 181.4043 372.40292 178.85194 367.48633 173.74805 C 362.56973 168.64415 360.11328 161.57428 360.11328 152.53711 C 360.11328 143.73407 361.84552 135.3058 365.31055 127.25195 C 368.8224 119.15128 373.45736 112.85259 379.2168 108.35742 C 384.97623 103.86225 391.3219 101.61523 398.25195 101.61523 z M 469.19141 101.61523 C 473.49928 101.61523 477.33761 102.78572 480.70898 105.12695 C 484.08036 107.42136 486.70318 110.74687 488.57617 115.10156 L 489.34766 115.10156 L 494.05469 103.01953 L 502.97461 103.01953 L 486.60938 180 L 477.26758 180 L 479.09375 165.32031 L 478.53125 165.32031 C 470.14963 176.04317 461.32402 181.4043 452.05273 181.4043 C 445.5441 181.4043 440.43939 179.08682 436.74023 174.45117 C 433.04108 169.81553 431.19141 163.47182 431.19141 155.41797 C 431.19141 145.67843 432.85513 136.63948 436.17969 128.30469 C 439.50424 119.96989 444.09223 113.43828 449.94531 108.70898 C 455.7984 103.97969 462.21453 101.61523 469.19141 101.61523 z M 561.06055 101.61523 C 567.00728 101.61523 571.68922 103.25352 575.10742 106.53125 C 578.57245 109.76215 580.30469 114.30512 580.30469 120.1582 C 580.30469 123.85735 579.76642 128.07149 578.68945 132.80078 L 568.64648 180 L 556.70508 180 L 567.10156 131.39648 C 568.03806 126.52672 568.50586 123.15424 568.50586 121.28125 C 568.50586 118.33129 567.66225 115.96684 565.97656 114.1875 C 564.3377 112.40816 561.69334 111.51953 558.04102 111.51953 C 553.87362 111.51953 549.79846 112.92294 545.81836 115.73242 C 541.88508 118.5419 538.39712 122.5466 535.35352 127.74414 C 532.35673 132.94168 530.08623 139.23842 528.54102 146.63672 L 521.44727 180 L 509.64648 180 L 526.08203 103.01953 L 535.8457 103.01953 L 534.30078 117.2793 L 535.00195 117.2793 C 539.49712 111.56668 543.8287 107.5385 547.99609 105.19727 C 552.21032 102.80921 556.56538 101.61523 561.06055 101.61523 z M 470.31445 111.51953 C 465.44468 111.51953 460.90172 113.53167 456.6875 117.55859 C 452.5201 121.58552 449.24353 127.0406 446.85547 133.92383 C 444.46741 140.80706 443.27344 148.06484 443.27344 155.69727 C 443.27344 161.03528 444.37346 165.03998 446.57422 167.70898 C 448.77498 170.33117 451.8656 171.64258 455.8457 171.64258 C 460.3877 171.64258 464.90522 169.48756 469.40039 165.17969 C 473.89556 160.82499 477.54794 155.18201 480.35742 148.25195 C 483.1669 141.27507 484.57227 134.29915 484.57227 127.32227 C 484.57227 122.49932 483.26085 118.65904 480.63867 115.80273 C 478.01649 112.94643 474.5755 111.51953 470.31445 111.51953 z M 397.54883 111.66016 C 392.72588 111.66016 388.18292 113.8602 383.92188 118.26172 C 379.70765 122.66324 376.47805 128.77403 374.23047 136.59375 L 375.07227 136.59375 C 385.7483 136.59375 393.92015 135.21188 399.58594 132.44922 C 405.29855 129.63974 408.1543 125.59002 408.1543 120.29883 C 408.1543 117.81712 407.28915 115.75605 405.55664 114.11719 C 403.87095 112.47832 401.20115 111.66016 397.54883 111.66016 z M 836.74023 117.13867 C 833.55615 117.13867 830.46553 118.72998 827.46875 121.91406 C 824.51879 125.05132 822.13085 129.26545 820.30469 134.55664 C 818.52535 139.80101 817.63672 145.60645 817.63672 151.97461 C 817.63672 155.72059 818.50186 158.71726 820.23438 160.96484 C 821.96689 163.21243 824.35679 164.33789 827.40039 164.33789 C 830.53765 164.33789 833.53432 162.72114 836.39062 159.49023 C 839.24693 156.25933 841.54092 151.83576 843.27344 146.2168 C 845.05278 140.55101 845.94141 134.97849 845.94141 129.5 C 845.94141 121.25885 842.87427 117.13867 836.74023 117.13867 z "
       transform="translate(0,452.36216)"
       id="rect4695"
       inkscape:export-filename="/Users/seanne/Documents/Sean/logo-whiteout.png"
       inkscape:export-xdpi="90"
       inkscape:export-ydpi="90" />
  </g>
</svg>
